<svg clip-rule="evenodd" fill-rule="evenodd" viewBox="0 0 560 400" xmlns="http://www.w3.org/2000/svg"><path d="m340.527 229.901c-15.9 11.3-34.7 23.1-54.9 35.4l-.8.5c-.3.2-.3.6-.1.8.2.3.6.3.8.1l.7-.4c17.1-8.9 36.8-19.6 56.6-30.5l.3-.2c-1-1.6-1.9-3.6-2.6-5.7zm104.1-84.3c-25-27.6-185.8-2.8-254.2 12.2l-1.6.3c-.3.1-.5.4-.5.7.1.3.4.5.7.5l1.6-.3c56.7-10.1 174.5-24.1 199.9 1.1 7.7 7.7 5.9 17.6-3.1 29.2 4.8 3.1 8.3 8 9.8 14.1 35-23.3 58.6-45.5 47.4-57.8z" fill="#d03027"/><g fill="#004977"><path d="m350.727 222.601c.3 9.7 6.5 17.6 14.5 17.6 15.5 0 22.1-19 21.7-31.8-.3-9.7-6.6-17.7-14.6-17.7-13.5.2-22.1 19.1-21.6 31.9zm-8.2-.5c-.6-16.6 12.4-33.5 31.2-33.5 12.6 0 20.8 8.4 21.3 21.3.6 17.5-11.5 33.5-31.2 33.5-12.6 0-20.9-8.4-21.3-21.3zm-178.5-4.4c-.7.3-1.5.5-2.6.7s-3 .6-5.9 1c-2 .3-3.3.7-4.1 1.3-.7.6-1.2 1.2-1.3 2-.2.9.1 1.5.9 2.1.8.5 2 .8 3.8.8 1.3 0 2.6-.2 3.9-.6s2.4-1 3.2-1.7c.6-.5 1-1.2 1.4-2 .1-.5.4-1.7.7-3.6zm16.4-10.1c-.1 1.5-.3 2.9-.7 5.2l-2.8 15.6c-.2 1.4.3 2.5 1.6 3.2l-.1.6h-15.9l-.1-4c-2.3 1.4-5.1 2.6-7.6 3.3-2.5.6-4.5.9-7.6.9-5.1 0-8.1-.5-10.1-2.3-2.1-1.8-3.1-3-3-5.6.1-1.4.8-3.3 1.9-4.6s2.6-2.2 4.2-2.9c1.6-.8 3.6-1.3 6.4-1.8s6.7-.9 11.9-1.3c2.7-.2 4.4-.9 5.2-1.2 1.1-.4 1.5-.9 1.7-1.8.3-1.6-.2-2.5-2.3-2.9-5.7-1.1-16.4.7-22 2.1l3-8.1c7.3-1.1 14.1-1.7 21.3-1.7 11.4-.2 15.1 3.1 15 7.3zm46 24.5 5.5-31.1h15.2l-5.5 31.1zm6.3-38.3c.5-2.6 4.5-4.6 9-4.6s7.8 2.1 7.4 4.6c-.5 2.6-4.5 4.6-9 4.6-4.6.1-7.8-2-7.4-4.6zm68.3 24c-.7.2-1.6.5-2.6.7-1.1.3-3 .6-5.9 1-2 .3-3.3.7-4.1 1.3-.7.5-1.2 1.2-1.3 2-.2.9.2 1.6.9 2.1.8.5 2 .8 3.8.8 1.3 0 2.6-.2 3.9-.6s2.4-1 3.2-1.7c.6-.5 1-1.2 1.4-2 .1-.5.4-1.7.7-3.6zm16.4-10.2c-.1 1.5-.3 2.9-.8 5.2l-2.8 15.6c-.2 1.4.3 2.5 1.5 3.2l-.1.5h-15.9l-.1-4c-2.3 1.4-5.1 2.6-7.6 3.3s-4.6.9-7.6.9c-5.1 0-8-.5-10.1-2.3s-3.1-3-3-5.6c.1-1.5.8-3.3 1.9-4.6s2.6-2.2 4.2-3 3.6-1.3 6.3-1.8c2.8-.4 6.7-.9 12-1.3 2.7-.2 4.4-.8 5.2-1.1 1.1-.4 1.5-.9 1.7-1.8.3-1.6-.2-2.5-2.3-2.9-5.7-1.1-16.4.7-22 2.1l3-8.1c7.3-1.1 14.1-1.8 21.3-1.8 11.6.1 15.3 3.3 15.2 7.5zm-185.4 13.3c-4.9 1-7.7 1.4-12.6 1.4-7.3 0-13-3.6-12.7-10.2.2-4.4 5.4-13.7 18.7-13.7 4.2 0 7.4.7 11.8 3.2l1.9-10.8c-6-2.3-9.9-2.6-15-2.5-17.4.2-34 8.1-36.1 24.1-2.1 16.3 17.8 20.4 26.6 20.4 5.1 0 10.4-.2 15.4-.7zm123.4-20 1.1-6.3 15.9-3.5-1.7 9.8h7.8l-1.5 6.3h-7.5l-4.6 25s-15.3-.1-15.4 0l4.6-24.9h-5.8l1.2-6.3h5.9zm77.4 31.2h-15.5l7.8-43.3 15.1.4zm-126.5-23.8c-2 0-3.8.6-5.4 1.8s-2.6 3-3 5.3c-.5 2.7-.2 4.7.9 5.9s2.6 1.8 4.7 1.8c1.4 0 2.8-.2 3.9-.8 1.3-.7 2.2-1.4 3-2.6s1.4-2.5 1.7-4.1c.4-2.5.1-4.3-1.1-5.5s-2.8-1.8-4.7-1.8zm-27.7 34.5 7.4-41.6h13.3l-1 5.3c1.2-1.6 3-2.9 5.6-4s5.5-1.8 8.6-1.8c3.5 0 5.6.2 8.2 1.5 2.6 1.4 4.4 3.3 5.4 5.9 1 2.5 1.2 5.4.7 8.5-.9 5.1-3.4 9.2-7.5 12.2s-7.7 3.8-13 3.8c-1.9 0-3.4-.2-4.7-.5s-2.3-.7-3-1.2-1.5-1.2-2.5-2.3l-2.5 14.3h-15zm275.8-30.7c-.1-2.5-1.3-4.2-3.9-4.2-6.2 0-12.9 12.2-14 17.1 10.2.1 18.1-6 17.9-12.9zm1.3 19.2 1.2.8c-3 6.2-9.2 11.2-16.5 11.2-5.9 0-10.8-4-11.1-11.4-.5-13.3 12-25.7 22.2-25.7 4.4 0 8.4 1.9 8.6 6.6.4 10.6-14.5 13.8-24.3 14-.3 1.1-.4 2.2-.4 3.9.2 4.4 2.8 8.1 8.3 8.1 4.9 0 9.6-3.8 12-7.5zm-60.9-19.5c1.1-.1 2.8-.3 3.5-.3 1.1 0 2.2.2 2.2 1.3 0 .7-1.2 5.4-1.4 6.5l-2.4 10.4c-1 4.3-2 8.8-2.9 12.3h6.1l3.4-16.6c10.4-10.9 14.5-14.4 16.9-14.4 1.1 0 1.9.6 1.9 1.9.1 1.9-1.1 6.3-1.5 7.5l-3.5 12.1c-.8 2.7-1.4 5.2-1.3 6.9.1 2.7 1.7 3.8 4.1 3.8 4.4 0 7.7-4.6 10.5-9.2l-.8-1.5c-1.1 1.8-3.8 5.8-5.9 5.8-.7 0-1.3-.4-1.3-1.5-.1-1.4.5-3.5.9-4.9l3.9-14.1c1-3.9 1.5-6.4 1.5-7.7-.1-2.6-1.6-3.9-4-3.9-4 0-9.3 2.9-20.6 15.9h-.2l1.4-6.3c.8-3.5 1.5-7.1 2.3-9.6-3.9 1.4-9.5 3-12.9 3.6z"/><path d="m461.127 200.501c0-3.1 2.5-5.4 5.5-5.4 2.9 0 5.5 2.3 5.5 5.4s-2.5 5.4-5.5 5.4c-3 .1-5.5-2.2-5.5-5.4zm5.5 4.6c2.4 0 4.4-1.9 4.4-4.5s-1.9-4.5-4.4-4.5-4.4 1.9-4.4 4.5 1.9 4.5 4.4 4.5zm-1.1-1.4h-1v-6.2h2.4c1.5 0 2.2.5 2.2 1.8 0 1.1-.7 1.6-1.6 1.7l1.8 2.7h-1.1l-1.6-2.7h-1.1zm1.1-3.5c.8 0 1.5-.1 1.5-1 0-.8-.7-.9-1.4-.9h-1.3v1.9z"/></g></svg>