<?xml version="1.0" standalone="no"?>
<!DOCTYPE svg PUBLIC "-//W3C//DTD SVG 20010904//EN"
 "http://www.w3.org/TR/2001/REC-SVG-20010904/DTD/svg10.dtd">
<svg version="1.0" xmlns="http://www.w3.org/2000/svg"
 width="400.000000pt" height="400.000000pt" viewBox="0 0 400.000000 400.000000"
 preserveAspectRatio="xMidYMid meet">
<metadata>
Created by potrace 1.11, written by Peter Selinger 2001-2013
</metadata>
<g transform="translate(0.000000,400.000000) scale(0.100000,-0.100000)"
fill="#000000" stroke="none">
<path d="M1749 2805 c-2 -1 -40 -6 -84 -9 -115 -8 -174 -15 -315 -38 -69 -11
-138 -22 -155 -24 -16 -3 -48 -10 -70 -16 -22 -5 -47 -11 -55 -13 -54 -11
-223 -64 -318 -101 -193 -74 -321 -152 -427 -259 -96 -96 -128 -163 -129 -270
-1 -70 3 -88 31 -148 82 -173 320 -332 658 -440 80 -25 266 -73 321 -83 16 -3
65 -11 109 -19 44 -8 103 -17 130 -20 28 -3 64 -7 80 -9 230 -29 723 -29 951
-1 72 9 119 16 144 20 14 2 41 7 60 9 19 3 46 8 60 11 14 3 41 8 60 11 55 9
227 53 315 81 329 105 574 268 660 438 26 53 30 70 30 145 -1 74 -5 93 -30
145 -51 103 -181 219 -346 308 -69 37 -210 97 -274 116 -22 7 -49 16 -60 21
-20 9 -208 57 -261 66 -16 3 -48 9 -72 15 -23 5 -59 12 -80 15 -20 3 -64 9
-97 14 -33 5 -94 12 -135 15 -41 4 -86 9 -100 12 -28 6 -596 14 -601 8z"/>
</g>
</svg>
